<svg xmlns="http://www.w3.org/2000/svg" viewBox="0 0 1200 760" role="img" aria-labelledby="title desc"><title id="title">Cinema Manager preview</title><desc id="desc">Dark cinema catalogue with movie cards and screenings.</desc><defs><linearGradient id="bg" x2="1" y2="1"><stop stop-color="#30151a"/><stop offset=".58" stop-color="#101014"/></linearGradient><linearGradient id="red" x2="1" y2="1"><stop stop-color="#ef4754"/><stop offset="1" stop-color="#681720"/></linearGradient><linearGradient id="blue" x2="1" y2="1"><stop stop-color="#4c8aaf"/><stop offset="1" stop-color="#142e3d"/></linearGradient><filter id="shadow"><feDropShadow dy="18" stdDeviation="15" flood-opacity=".5"/></filter></defs><rect width="1200" height="760" rx="24" fill="#0b0b0e" filter="url(#shadow)"/><rect width="1200" height="255" rx="24" fill="url(#bg)"/><rect x="42" y="34" width="48" height="48" rx="9" fill="#e63946"/><text x="66" y="68" text-anchor="middle" font-family="Segoe UI" font-weight="900" font-size="29" fill="white">C</text><text x="106" y="53" font-family="Segoe UI" font-weight="900" font-size="17" fill="white">CINEMA</text><text x="106" y="70" font-family="Segoe UI" font-weight="800" font-size="10" fill="#e63946">MANAGER</text><rect x="1100" y="38" width="56" height="36" rx="8" fill="none" stroke="#5a5961"/><text x="1128" y="62" text-anchor="middle" font-family="Segoe UI" font-size="13" fill="white">EN</text><text x="42" y="135" font-family="Segoe UI" font-size="35" font-weight="800" fill="white">Tu próxima historia empieza aquí</text><text x="42" y="169" font-family="Segoe UI" font-size="14" fill="#aaa9b0">Explora la cartelera, elige una sesión y reserva tus entradas.</text><rect x="42" y="194" width="510" height="44" rx="10" fill="#1c1c21" stroke="#36363d"/><text x="62" y="221" font-family="Segoe UI" font-size="13" fill="#777780">Buscar por película o director…</text><rect y="255" width="770" height="505" fill="#101014"/><rect x="770" y="255" width="430" height="505" fill="#19191e"/><text x="42" y="302" font-family="Segoe UI" font-size="18" font-weight="800" fill="white">Ahora en cartelera</text><g transform="translate(42 330)"><rect width="205" height="355" rx="14" fill="#1b1b20"/><rect x="14" y="14" width="177" height="240" rx="10" fill="url(#red)"/><text x="102" y="166" text-anchor="middle" font-family="Segoe UI" font-size="80" font-weight="900" fill="white">L</text><text x="15" y="285" font-family="Segoe UI" font-size="16" font-weight="800" fill="white">La última luz</text><text x="15" y="315" font-family="Segoe UI" font-size="12" fill="#85858e">Clara Montes</text></g><g transform="translate(265 330)"><rect width="205" height="355" rx="14" fill="#1b1b20"/><rect x="14" y="14" width="177" height="240" rx="10" fill="url(#blue)"/><text x="102" y="166" text-anchor="middle" font-family="Segoe UI" font-size="80" font-weight="900" fill="white">Ó</text><text x="15" y="285" font-family="Segoe UI" font-size="16" font-weight="800" fill="white">Órbita silenciosa</text><text x="15" y="315" font-family="Segoe UI" font-size="12" fill="#85858e">Noah Bennett</text></g><g transform="translate(488 330)"><rect width="205" height="355" rx="14" fill="#1b1b20"/><rect x="14" y="14" width="177" height="240" rx="10" fill="#9f642b"/><text x="102" y="166" text-anchor="middle" font-family="Segoe UI" font-size="80" font-weight="900" fill="white">C</text><text x="15" y="285" font-family="Segoe UI" font-size="16" font-weight="800" fill="white">La ciudad de papel</text><text x="15" y="315" font-family="Segoe UI" font-size="12" fill="#85858e">Elena Vidal</text></g><text x="808" y="309" font-family="Segoe UI" font-size="11" font-weight="800" fill="#e63946">SELECCIÓN DE HOY</text><text x="808" y="358" font-family="Segoe UI" font-size="31" font-weight="900" fill="white">La última luz</text><text x="808" y="389" font-family="Segoe UI" font-size="13" fill="#aaaab2">Clara Montes · 112 min</text><line x1="808" y1="420" x2="1158" y2="420" stroke="#35353b"/><text x="808" y="458" font-family="Segoe UI" font-size="17" font-weight="800" fill="white">Sesiones disponibles</text><g transform="translate(808 482)"><rect width="350" height="64" rx="10" fill="#24242a"/><text x="16" y="39" font-family="Segoe UI" font-size="18" font-weight="800" fill="white">17:30</text><text x="84" y="38" font-family="Segoe UI" font-size="12" fill="#aaaab2">Sala 1</text><text x="140" y="38" font-family="Segoe UI" font-size="12" fill="#64c9a8">24 libres</text><rect x="267" y="14" width="70" height="36" rx="8" fill="#e63946"/><text x="302" y="37" text-anchor="middle" font-family="Segoe UI" font-size="11" font-weight="800" fill="white">Entradas</text></g><g transform="translate(808 558)"><rect width="350" height="64" rx="10" fill="#24242a"/><text x="16" y="39" font-family="Segoe UI" font-size="18" font-weight="800" fill="white">20:30</text><text x="84" y="38" font-family="Segoe UI" font-size="12" fill="#aaaab2">Sala 2</text><text x="140" y="38" font-family="Segoe UI" font-size="12" fill="#64c9a8">11 libres</text><rect x="267" y="14" width="70" height="36" rx="8" fill="#e63946"/><text x="302" y="37" text-anchor="middle" font-family="Segoe UI" font-size="11" font-weight="800" fill="white">Entradas</text></g></svg>
